<svg width="26" height="43" viewBox="0 0 26 43" fill="none" xmlns="http://www.w3.org/2000/svg">
<path d="M0.00274658 37.864V40.769C0.00811768 41.6755 0.743752 42.4085 1.65121 42.4094L24.0925 42.4103V42.3959C24.1596 42.404 24.2276 42.4103 24.2974 42.4103C25.2058 42.4103 25.9423 41.6764 25.9468 40.769L25.9477 37.864H0.00274658Z" fill="url(#paint0_linear_1_432)"/>
<path d="M13.9789 10.5624C10.7303 10.5176 7.60608 11.5566 5.48957 13.0261V0.410278H6.10352e-05V35.079H5.48957V32.2448C7.27406 34.3291 10.8735 35.8209 13.9637 35.6562C20.1664 35.3269 25.9531 30.6008 25.9531 23.3303C25.9531 16.059 20.4644 10.6519 13.9789 10.5624ZM12.726 30.5104C8.75338 30.5104 5.52 27.277 5.52 23.3044C5.52 19.3318 8.75338 16.145 12.726 16.145C16.6986 16.145 19.8854 19.3318 19.8854 23.3044C19.8854 27.277 16.6986 30.5104 12.726 30.5104Z" fill="url(#paint1_linear_1_432)"/>
<defs>
<linearGradient id="paint0_linear_1_432" x1="12.9751" y1="-5.06885e+08" x2="12.9751" y2="-5.06885e+08" gradientUnits="userSpaceOnUse">
<stop stop-color="white"/>
<stop offset="1" stop-color="#767676"/>
</linearGradient>
<linearGradient id="paint1_linear_1_432" x1="6.48831" y1="9.22487" x2="6.48831" y2="9.22487" gradientUnits="userSpaceOnUse">
<stop stop-color="white"/>
<stop offset="1" stop-color="#767676"/>
</linearGradient>
</defs>
</svg>
