<svg width="27" height="28" viewBox="0 0 27 28" fill="none" xmlns="http://www.w3.org/2000/svg">
<path d="M14.1395 13.2833C10.4774 13.2833 7.49792 10.3039 7.49792 6.64154C7.49792 2.97943 10.4774 0 14.1395 0C17.8018 0 20.7813 2.97943 20.7813 6.64154C20.7813 10.3039 17.8018 13.2833 14.1395 13.2833ZM14.1395 1.52726C11.3194 1.52726 9.0252 3.82145 9.0252 6.64154C9.0252 9.46162 11.3194 11.7561 14.1395 11.7561C16.9595 11.7561 19.254 9.46162 19.254 6.64154C19.254 3.82145 16.9595 1.52726 14.1395 1.52726Z" fill="white"/>
<path d="M23.8572 26.8157L20.1862 16.5993C20.1136 16.398 19.9212 16.2626 19.7071 16.2626H8.55025C8.33567 16.2626 8.14298 16.3982 8.07069 16.6003L4.42232 26.8073L2.81335 26.8157L6.63252 16.0862C6.92142 15.278 7.69193 14.7353 8.55025 14.7353H19.7071C20.5637 14.7353 21.3337 15.2767 21.6236 16.0829L25.5054 26.8157H23.8572Z" fill="white"/>
</svg>
