<svg width="32" height="29" viewBox="0 0 32 29" fill="none" xmlns="http://www.w3.org/2000/svg">
<path d="M25.5246 4.15917H0.0626221V5.70326H3.42101L6.61984 23.2672H23.5945V21.7232H7.90658L7.32497 18.5269H25.625L25.7588 18.514C26.4073 18.4008 26.8783 17.8398 26.8783 17.181V5.51539C26.8783 4.76651 26.2709 4.15917 25.5246 4.15917ZM25.3342 16.9828H7.04446L4.99083 5.70326H25.3342V16.9828Z" fill="white"/>
<path d="M11.582 26.2939C11.582 25.3093 10.784 24.5113 9.79937 24.5113C8.81477 24.5113 8.01672 25.3093 8.01672 26.2939C8.01672 27.2785 8.81477 28.0766 9.79937 28.0766C10.784 28.0766 11.582 27.2785 11.582 26.2939Z" fill="white"/>
<path d="M23.3476 26.2939C23.3476 25.3093 22.5496 24.5113 21.565 24.5113C20.5804 24.5113 19.7823 25.3093 19.7823 26.2939C19.7823 27.2785 20.5804 28.0766 21.565 28.0766C22.5496 28.0766 23.3476 27.2785 23.3476 26.2939Z" fill="white"/>
<ellipse cx="26.042" cy="4.87558" rx="5.08267" ry="4.87558" fill="#0086DF"/>
</svg>
