<svg width="66" height="51" viewBox="0 0 66 51" fill="none" xmlns="http://www.w3.org/2000/svg">
<path d="M50.332 15.7021C51.245 15.7021 51.992 16.4491 51.992 17.3621V47.8131C51.992 48.7261 51.245 49.4731 50.332 49.4731H3.41098C2.49798 49.4731 1.75098 48.7261 1.75098 47.8131V16.9721C1.75098 16.2731 2.32198 15.7021 3.01998 15.7021H50.332Z" stroke="#4D5269" stroke-width="3"/>
<line x1="1.75098" y1="30.0764" x2="51.9917" y2="30.0764" stroke="#4D5269" stroke-width="3"/>
<line x1="1.75098" y1="37.4978" x2="51.9917" y2="37.4978" stroke="#4D5269" stroke-width="3"/>
<path d="M11.923 15.7021L14.459 2.52011C14.591 1.83411 15.26 1.38111 15.945 1.51311L62.405 10.4521C63.301 10.6241 63.894 11.4991 63.721 12.3951L57.968 42.2981C57.796 43.1941 56.921 43.7871 56.024 43.6141L51.992 42.8391" stroke="#4D5269" stroke-width="3"/>
<path d="M3.41094 49.5C2.49834 49.5 1.75134 48.7521 1.75134 47.8386V16.9875C1.75134 16.2882 2.32194 15.7167 3.02034 15.7167H11.9231L14.4593 2.53081C14.5907 1.84411 15.2603 1.39141 15.9452 1.52371L62.405 10.4652C63.3014 10.6371 63.8945 11.5119 63.7208 12.4092L57.968 42.3216C57.7961 43.218 56.9213 43.8111 56.024 43.6383L51.992 42.8634V47.8386C51.992 48.7521 51.245 49.5 50.3324 49.5H3.41094Z" stroke="#4D5269"/>
</svg>
