<svg width="54" height="42" viewBox="0 0 54 42" fill="none" xmlns="http://www.w3.org/2000/svg">
<path d="M53.1831 8.44045C52.7708 7.8633 52.1936 7.45083 51.5339 7.36819L13.1924 0.0298152C12.6152 -0.0528264 11.9558 0.0298152 11.4614 0.359771C10.9661 0.689605 10.6372 1.18399 10.4714 1.84378L8.5752 11.7384H2.30811C0.989502 11.6566 0 12.7279 0 13.9649V39.3609C0 40.8449 1.1543 42 2.63818 42H41.3096C42.7117 42 43.9485 40.8449 43.9485 39.3609V36.7229L45.7622 37.0527C45.928 37.0527 46.0923 37.1345 46.2566 37.1345C46.752 37.1345 47.2466 36.9699 47.7415 36.7229C48.3186 36.3103 48.7305 35.7331 48.813 35.0735L53.5959 10.4197C53.6775 9.76002 53.5132 9.01759 53.1831 8.44045ZM41.3096 14.1301C41.3921 14.1301 41.4749 14.2119 41.4749 14.2947V24.7663H2.47388V14.1301H41.3096ZM41.3921 30.8686H2.47388V27.24H41.3921V30.8686ZM41.3096 39.5263H2.63818C2.5564 39.5263 2.47388 39.4437 2.47388 39.3609V33.3423H41.3921V39.3609C41.3921 39.4437 41.3921 39.5263 41.3096 39.5263ZM46.3394 34.5791C46.3394 34.6609 46.3394 34.6609 46.3394 34.5791C46.2566 34.6609 46.2566 34.6609 46.175 34.6609L43.866 34.2491V14.2947C43.866 12.8933 42.7117 11.6566 41.2278 11.6566H11.1313L12.8625 2.42093L50.9568 9.76002C51.0396 9.76002 51.0396 9.84181 51.0396 9.92445L46.3394 34.5791Z" fill="url(#paint0_linear_1_339)"/>
<defs>
<linearGradient id="paint0_linear_1_339" x1="13.4042" y1="10.5" x2="13.4042" y2="10.5" gradientUnits="userSpaceOnUse">
<stop stop-color="white"/>
<stop offset="1" stop-color="#767676"/>
</linearGradient>
</defs>
</svg>
