<svg width="119" height="27" viewBox="0 0 119 27" fill="none" xmlns="http://www.w3.org/2000/svg">
<path d="M47.3447 21.6131C49.3311 21.6131 50.9469 20.022 50.9469 18.062C50.9469 16.1025 49.3311 14.4983 47.3447 14.4983C45.3584 14.4983 43.7512 16.1025 43.7512 18.062C43.7512 20.022 45.3584 21.6131 47.3447 21.6131Z" fill="white"/>
<path d="M70.6887 26.2651C67.0141 26.2651 63.6902 24.8256 61.0394 20.8805C58.3887 16.95 55.1172 11.7626 53.3194 9.13101C51.5719 6.562 49.9361 5.2288 47.132 5.2288C44.3276 5.2288 42.6985 6.562 40.9444 9.13101C39.1487 11.7626 35.8775 16.95 33.2267 20.8805C30.5759 24.8256 27.2388 26.2651 23.5838 26.2651C19.909 26.2651 16.583 24.8256 13.9256 20.8805C11.2745 16.95 8.16775 12.3111 6.36995 9.67269C4.61793 7.10397 2.98247 5.7404 0.182617 5.7404V1.36351C4.23 1.36351 7.68103 3.2908 10.5161 7.53963C13.3509 11.7864 15.4758 14.8736 17.3438 17.7281C19.2118 20.5768 21.0096 21.9338 23.5838 21.9338C26.1536 21.9338 27.9336 20.5768 29.8019 17.7281C31.6765 14.8736 33.9568 11.2337 36.7853 6.98694C39.6288 2.74227 43.0735 0.821838 47.132 0.821838C51.1836 0.821838 54.6326 2.74227 57.4722 6.98694C60.3115 11.2337 62.5873 14.8736 64.4594 17.7281C66.3214 20.5768 68.1147 21.9728 70.6887 21.9728V26.2651Z" fill="white"/>
<path d="M81.152 -6.10352e-05C78.9813 2.14818 77.6615 4.02782 77.6615 9.48627V26.3518H82.4323V9.26084C82.4323 6.57926 82.6296 5.29788 84.0112 3.88905L81.152 -6.10352e-05Z" fill="white"/>
<path d="M91.4481 13.5424C91.4481 6.13705 97.5167 0.12561 105.003 0.12561C112.501 0.12561 118.557 6.13705 118.557 13.5424C118.557 20.9454 112.501 26.9542 105.003 26.9542C97.5167 26.9542 91.4481 20.9454 91.4481 13.5424ZM105.003 22.502C109.861 22.502 113.804 18.4872 113.804 13.5424C113.804 8.59321 109.861 4.5826 105.003 4.5826C100.152 4.5826 96.2014 8.59321 96.2014 13.5424C96.2014 18.4872 100.152 22.502 105.003 22.502Z" fill="white"/>
</svg>
