<svg width="84" height="26" viewBox="0 0 84 26" fill="none" xmlns="http://www.w3.org/2000/svg">
<path d="M11.5847 0.00012207C9.70267 0.00012207 8.10067 0.741119 6.89367 2.01111C6.80868 2.00812 6.72268 2.00612 6.63767 2.00612C4.18067 2.00612 1.87768 3.42512 0.752675 5.62811C0.261663 6.59012 0.0796712 7.62511 0.0226644 8.67812C-0.0283305 9.62411 0.0226644 10.5841 0.0226644 11.5201V17.2271V20.5931H5.06467C5.06467 20.5931 5.06867 16.1241 5.06467 12.2821C5.06267 9.69511 5.04567 7.39011 5.06467 6.91711C5.15368 4.67912 5.76166 3.21512 6.89467 2.01811C10.6467 2.02112 13.0767 4.60111 13.2117 8.70811C13.2437 9.65112 13.2537 14.6981 13.2537 14.6981V20.5931H18.2947V12.6231C18.2947 10.2141 18.3137 8.12811 18.1477 6.69212C17.6827 2.67812 15.2517 0.00012207 11.5847 0.00012207Z" fill="url(#paint0_linear_1_433)"/>
<path d="M38.1687 9.56116V3.85416V0.488159H33.1267C33.1267 0.488159 33.1236 4.95816 33.1267 8.80016C33.1297 11.3872 33.1456 13.6922 33.1267 14.1652C33.0376 16.4032 32.4307 17.8672 31.2977 19.0642C27.5447 19.0602 25.1156 16.4802 24.9796 12.3732C24.9487 11.4302 24.9357 9.09016 24.9357 6.37916V0.483154L19.8967 0.488159V8.45916C19.8967 10.8682 19.8777 12.9542 20.0437 14.3902C20.5087 18.4032 22.9406 21.0822 26.6066 21.0822C28.4897 21.0822 30.0907 20.3402 31.2986 19.0712C31.3837 19.0742 31.4686 19.0762 31.5546 19.0762C34.0107 19.0762 36.3147 17.6572 37.4386 15.4542C37.9296 14.4922 38.1117 13.4572 38.1687 12.4032C38.2197 11.4582 38.1687 10.4972 38.1687 9.56116Z" fill="url(#paint1_linear_1_433)"/>
<path d="M50.0597 9.49918H45.7217V3.53017H50.0597C51.8117 3.53017 53.1037 4.80518 53.1037 6.48518C53.1037 8.19518 51.8117 9.49918 50.0597 9.49918ZM50.0597 0.28418H42.3607V20.5692H45.7217V12.7452H50.0597C53.7647 12.7452 56.4937 10.1082 56.4937 6.48518C56.4937 2.92117 53.7647 0.28418 50.0597 0.28418Z" fill="url(#paint2_linear_1_433)"/>
<path d="M65.9456 14.8601C65.9456 16.6281 64.4226 18.3091 62.2106 18.3091C60.8036 18.3091 59.8836 17.5261 59.8836 16.4251C59.8836 14.9471 61.2916 14.2521 63.7906 14.2521H65.9456V14.8601ZM62.9576 6.10913C59.9416 6.10913 57.4136 8.34013 57.1836 11.1801H60.0566C60.1426 9.73113 61.4066 8.74613 62.9576 8.74613C64.7676 8.74613 65.9456 9.87613 65.9456 11.5861V11.8471H63.8776C59.6836 11.8471 57.0686 13.7011 57.0686 16.6861C57.0686 19.0621 58.9366 20.8591 61.6656 20.8591C63.5326 20.8591 64.9686 20.1341 65.9456 18.8011V20.5691H68.9616V11.7891C68.9616 8.39813 66.8646 6.10913 62.9576 6.10913Z" fill="url(#paint3_linear_1_433)"/>
<path d="M80.5574 6.44604L76.7942 16.0959L73.031 6.44604H69.5839L75.1568 19.8632L72.6288 25.6009H76.076L84.0045 6.44604H80.5574Z" fill="url(#paint4_linear_1_433)"/>
<defs>
<linearGradient id="paint0_linear_1_433" x1="4.57383" y1="5.14837" x2="4.57383" y2="5.14837" gradientUnits="userSpaceOnUse">
<stop stop-color="white"/>
<stop offset="1" stop-color="#767676"/>
</linearGradient>
<linearGradient id="paint1_linear_1_433" x1="24.4698" y1="5.63291" x2="24.4698" y2="5.63291" gradientUnits="userSpaceOnUse">
<stop stop-color="white"/>
<stop offset="1" stop-color="#767676"/>
</linearGradient>
<linearGradient id="paint2_linear_1_433" x1="45.894" y1="5.35543" x2="45.894" y2="5.35543" gradientUnits="userSpaceOnUse">
<stop stop-color="white"/>
<stop offset="1" stop-color="#767676"/>
</linearGradient>
<linearGradient id="paint3_linear_1_433" x1="63.0154" y1="-7.38999e+08" x2="63.0154" y2="-7.38999e+08" gradientUnits="userSpaceOnUse">
<stop stop-color="white"/>
<stop offset="1" stop-color="#767676"/>
</linearGradient>
<linearGradient id="paint4_linear_1_433" x1="73.189" y1="11.2347" x2="73.189" y2="11.2347" gradientUnits="userSpaceOnUse">
<stop stop-color="white"/>
<stop offset="1" stop-color="#767676"/>
</linearGradient>
</defs>
</svg>
