<svg width="84" height="28" viewBox="0 0 84 28" fill="none" xmlns="http://www.w3.org/2000/svg">
<path d="M17.2742 22.2544H21.2032V10.806H17.2742V22.2544ZM22.5581 3.01572H19.9161V5.65765H22.5581V3.01572ZM7.72258 4.30283H3.92903V7.62218H7.45161C9.6871 7.62218 10.9742 8.70604 10.9742 10.7383C10.9742 12.7706 9.6871 13.9222 7.45161 13.9222H3.92903V7.68993H0V22.2544H3.92903V17.2415H7.65484C12.1936 17.2415 14.8355 14.8028 14.8355 10.6028C14.8355 6.6738 12.2613 4.30283 7.72258 4.30283ZM25.2 0.373779H17.2742V8.29959H25.2V0.373779ZM23.9129 6.94476H18.629V1.66087H23.9129V6.94476ZM46.9452 4.30283H43.3548V7.62218H46.7419C48.9774 7.62218 50.2645 8.70604 50.2645 10.7383C50.2645 12.7706 48.9774 13.9222 46.7419 13.9222H43.3548V7.68993H39.4258V22.2544H43.3548V17.2415H46.9452C51.4839 17.2415 54.1258 14.8028 54.1258 10.6028C54.1258 6.6738 51.4839 4.30283 46.9452 4.30283ZM79.9355 8.50282L76.5484 17.0383L73.1613 8.50282H69.0968L74.5161 22.2544L72.4161 27.4706H76.5484L84 8.50282H79.9355ZM62.3226 8.43507C59.9516 8.43507 58.1226 8.97701 56.0903 9.99315L57.3097 12.7028C58.7323 11.8899 60.1548 11.4835 61.4419 11.4835C63.3387 11.4835 64.2871 12.2964 64.2871 13.7867V14.0576H60.4935C57.1065 14.0576 55.2774 15.6157 55.2774 18.1899C55.2774 20.6964 57.0387 22.4577 60.0194 22.4577C61.9161 22.4577 63.271 21.7802 64.3548 20.6286V22.119H68.2161V13.177C68.0806 10.2641 65.9806 8.43507 62.3226 8.43507ZM64.6258 17.648C64.2194 18.7996 63.0677 19.748 61.4419 19.748C60.0871 19.748 59.2742 19.0706 59.2742 17.9867C59.2742 16.9028 60.0194 16.4286 61.5097 16.4286H64.6258V17.648ZM31.229 19.2738C29.3323 19.2738 27.9774 17.7835 27.9774 15.548C27.9774 13.3802 29.3323 11.8899 31.229 11.8899C32.5839 11.8899 33.6 12.4319 34.3452 13.3802L36.9871 11.4835C35.7677 9.65445 33.6677 8.57056 31.0258 8.57056C26.8935 8.50282 24.0484 11.348 24.0484 15.548C24.0484 19.748 26.8935 22.5254 31.0258 22.5254C33.871 22.5254 35.971 21.3738 37.1226 19.477L34.4129 17.648C33.7355 18.7319 32.6516 19.2738 31.229 19.2738Z" fill="url(#paint0_linear_1_355)"/>
<defs>
<linearGradient id="paint0_linear_1_355" x1="21" y1="7.14797" x2="21" y2="7.14797" gradientUnits="userSpaceOnUse">
<stop stop-color="white"/>
<stop offset="0.591237" stop-color="#767676"/>
</linearGradient>
</defs>
</svg>
