<svg width="43" height="43" viewBox="0 0 43 43" fill="none" xmlns="http://www.w3.org/2000/svg">
<path d="M33.5572 32.7813C31.8753 32.7813 30.294 32.1267 29.106 30.9387L22.6782 24.5109C22.2272 24.0588 21.4409 24.0599 20.9888 24.5109L14.5385 30.9622C13.3494 32.1503 11.7682 32.8049 10.0873 32.8049H8.82104L16.9607 40.9445C19.5029 43.4867 23.6252 43.4867 26.1674 40.9445L34.3307 32.7813H33.5572Z" fill="url(#paint0_linear_1_428)"/>
<path d="M10.0873 10.0463C11.7682 10.0463 13.3494 10.702 14.5385 11.89L20.9888 18.3413C21.4537 18.8063 22.2122 18.8084 22.6782 18.3413L29.1049 11.9136C30.294 10.7244 31.8753 10.0699 33.5572 10.0699H34.3307L26.1674 1.90664C23.6252 -0.635546 19.5029 -0.635546 16.9607 1.90664L8.82104 10.0463H10.0873Z" fill="url(#paint1_linear_1_428)"/>
<path d="M41.083 16.8222L36.1497 11.8889C36.0415 11.9328 35.9236 11.9596 35.7994 11.9596H33.5572C32.3969 11.9596 31.2614 12.4299 30.4429 13.2505L24.0151 19.6772C23.4141 20.2793 22.6235 20.5803 21.834 20.5803C21.0434 20.5803 20.2538 20.2793 19.6528 19.6783L13.2015 13.227C12.382 12.4063 11.2464 11.9361 10.0873 11.9361H7.32868C7.21191 11.9361 7.10157 11.9093 6.99765 11.8696L2.04506 16.8222C-0.497117 19.3644 -0.497117 23.4867 2.04506 26.0289L6.99765 30.9815C7.10157 30.9429 7.21191 30.9151 7.32868 30.9151H10.0873C11.2464 30.9151 12.382 30.4448 13.2015 29.6252L19.6518 23.1739C20.8184 22.0094 22.8507 22.0083 24.0151 23.175L30.4429 29.6006C31.2614 30.4212 32.3969 30.8915 33.5572 30.8915H35.7994C35.9236 30.8915 36.0415 30.9183 36.1497 30.9622L41.083 26.0289C43.6252 23.4867 43.6252 19.3644 41.083 16.8222Z" fill="url(#paint2_linear_1_428)"/>
<defs>
<linearGradient id="paint0_linear_1_428" x1="21.5758" y1="-4.10385e+08" x2="21.5758" y2="-4.10385e+08" gradientUnits="userSpaceOnUse">
<stop stop-color="white"/>
<stop offset="1" stop-color="#767676"/>
</linearGradient>
<linearGradient id="paint1_linear_1_428" x1="21.5759" y1="3.82992e+09" x2="21.5759" y2="3.82992e+09" gradientUnits="userSpaceOnUse">
<stop stop-color="white"/>
<stop offset="1" stop-color="#767676"/>
</linearGradient>
<linearGradient id="paint2_linear_1_428" x1="10.8512" y1="16.6476" x2="10.8512" y2="16.6476" gradientUnits="userSpaceOnUse">
<stop stop-color="white"/>
<stop offset="1" stop-color="#767676"/>
</linearGradient>
</defs>
</svg>
